<svg width="313" height="212" viewBox="0 0 313 212" fill="none" xmlns="http://www.w3.org/2000/svg">
<g filter="url(#filter0_d_1_7241)">
<rect x="24" y="24" width="265" height="164" rx="24" fill="white"/>
</g>
<ellipse cx="83.8333" cy="67.5885" rx="28" ry="28.3832" fill="#9D90FA" fill-opacity="0.25"/>
<path d="M93.4336 66.755H83.6555V56.843C83.6555 56.7211 83.5571 56.6213 83.4368 56.6213H82.7258C81.2911 56.6198 79.8701 56.9055 78.5445 57.462C77.219 58.0185 76.0148 58.8349 75.0012 59.8643C74.0033 60.8728 73.2083 62.0683 72.6606 63.3844C72.0918 64.7509 71.802 66.2006 71.802 67.6974C71.802 69.1941 72.0918 70.641 72.6606 72.0075C73.2102 73.3241 73.9977 74.5104 75.0012 75.5277C76.0047 76.5449 77.1723 77.3432 78.4739 77.9003C79.8196 78.4791 81.2668 78.776 82.7286 78.7735C84.1633 78.7749 85.5843 78.4892 86.9099 77.9327C88.2354 77.3762 89.4396 76.5598 90.4532 75.5305C91.4567 74.5132 92.2442 73.3297 92.7938 72.0103C93.3647 70.6462 93.6577 69.1792 93.6551 67.6974V66.9767C93.6524 66.8547 93.554 66.755 93.4336 66.755ZM95.8372 65.2166L95.7661 64.435C95.5336 61.8849 94.418 59.479 92.6188 57.6635C90.8213 55.8428 88.4525 54.7163 85.9223 54.4787L85.1485 54.4066C85.02 54.3955 84.9106 54.4953 84.9106 54.6256V65.261C84.9106 65.3829 85.009 65.4827 85.1293 65.4827L95.6184 65.455C95.7469 65.4522 95.8481 65.3441 95.8372 65.2166Z" fill="#9D90FA"/>
<path d="M202.833 58.657L206.833 54.657L210.833 58.657" stroke="#0049C6" stroke-width="2" stroke-linecap="round" stroke-linejoin="round"/>
<path d="M206.833 54.657V64.9861" stroke="#0049C6" stroke-width="2" stroke-linecap="round" stroke-linejoin="round"/>
<path d="M224.088 55.174V65.3558H221.936V57.2173H221.876L219.544 58.679V56.7699L222.065 55.174H224.088ZM226.354 63.5661V61.8707L230.605 55.174H232.066V57.5206H231.201L228.522 61.7614V61.8409H234.562V63.5661H226.354ZM231.241 65.3558V63.049L231.281 62.2983V55.174H233.299V65.3558H231.241ZM241.57 63.4467V62.9098C241.57 62.5021 241.656 62.1276 241.828 61.7862C242.004 61.4415 242.257 61.1664 242.589 60.9609C242.924 60.7521 243.331 60.6477 243.812 60.6477C244.299 60.6477 244.708 60.7505 245.04 60.956C245.375 61.1615 245.626 61.4366 245.795 61.7813C245.968 62.1226 246.054 62.4988 246.054 62.9098V63.4467C246.054 63.8544 245.968 64.2306 245.795 64.5753C245.623 64.9167 245.37 65.1901 245.035 65.3956C244.7 65.6044 244.292 65.7088 243.812 65.7088C243.325 65.7088 242.915 65.6044 242.584 65.3956C242.252 65.1901 242 64.9167 241.828 64.5753C241.656 64.2306 241.57 63.8544 241.57 63.4467ZM243.016 62.9098V63.4467C243.016 63.6821 243.073 63.9041 243.185 64.1129C243.301 64.3217 243.51 64.4261 243.812 64.4261C244.113 64.4261 244.319 64.3234 244.428 64.1179C244.541 63.9124 244.597 63.6887 244.597 63.4467V62.9098C244.597 62.6679 244.544 62.4425 244.438 62.2337C244.332 62.0249 244.123 61.9205 243.812 61.9205C243.513 61.9205 243.306 62.0249 243.19 62.2337C243.074 62.4425 243.016 62.6679 243.016 62.9098ZM236.344 57.62V57.0831C236.344 56.6721 236.432 56.2959 236.608 55.9546C236.784 55.6099 237.037 55.3348 237.369 55.1293C237.703 54.9238 238.108 54.821 238.582 54.821C239.072 54.821 239.483 54.9238 239.815 55.1293C240.146 55.3348 240.398 55.6099 240.57 55.9546C240.743 56.2959 240.829 56.6721 240.829 57.0831V57.62C240.829 58.031 240.741 58.4072 240.565 58.7486C240.393 59.09 240.139 59.3634 239.805 59.5689C239.473 59.7711 239.066 59.8722 238.582 59.8722C238.098 59.8722 237.688 59.7694 237.354 59.5639C237.022 59.3551 236.77 59.0817 236.598 58.7436C236.429 58.4022 236.344 58.0277 236.344 57.62ZM237.801 57.0831V57.62C237.801 57.862 237.857 58.0857 237.97 58.2912C238.086 58.4967 238.29 58.5994 238.582 58.5994C238.887 58.5994 239.094 58.4967 239.203 58.2912C239.316 58.0857 239.372 57.862 239.372 57.62V57.0831C239.372 56.8412 239.319 56.6158 239.213 56.407C239.107 56.1982 238.897 56.0938 238.582 56.0938C238.287 56.0938 238.083 56.1998 237.97 56.4119C237.857 56.6241 237.801 56.8478 237.801 57.0831ZM237.001 65.3558L244.001 55.174H245.303L238.303 65.3558H237.001Z" fill="#0049C6"/>
<path d="M202.413 75.8535V74.916H208.958V75.8535H206.214V83.6433H205.157V75.8535H202.413ZM211.459 79.7058V83.6433H210.453V74.916H211.459V78.1206H211.544C211.697 77.7825 211.927 77.514 212.234 77.3152C212.544 77.1135 212.956 77.0126 213.47 77.0126C213.916 77.0126 214.307 77.1021 214.642 77.2811C214.977 77.4572 215.237 77.7285 215.422 78.095C215.609 78.4587 215.703 78.9217 215.703 79.4842V83.6433H214.697V79.5524C214.697 79.0325 214.562 78.6305 214.292 78.3464C214.025 78.0595 213.655 77.916 213.18 77.916C212.851 77.916 212.555 77.9856 212.294 78.1248C212.035 78.264 211.831 78.4672 211.68 78.7342C211.532 79.0013 211.459 79.3251 211.459 79.7058ZM217.543 83.6433V77.0979H218.548V83.6433H217.543ZM218.054 76.0069C217.858 76.0069 217.689 75.9402 217.547 75.8067C217.408 75.6731 217.338 75.5126 217.338 75.3251C217.338 75.1376 217.408 74.9771 217.547 74.8436C217.689 74.7101 217.858 74.6433 218.054 74.6433C218.25 74.6433 218.418 74.7101 218.557 74.8436C218.699 74.9771 218.77 75.1376 218.77 75.3251C218.77 75.5126 218.699 75.6731 218.557 75.8067C218.418 75.9402 218.25 76.0069 218.054 76.0069ZM225.027 78.5638L224.123 78.8194C224.067 78.6689 223.983 78.5226 223.872 78.3805C223.764 78.2356 223.616 78.1163 223.429 78.0226C223.241 77.9288 223.001 77.8819 222.709 77.8819C222.308 77.8819 221.974 77.9743 221.707 78.1589C221.443 78.3408 221.311 78.5723 221.311 78.8535C221.311 79.1035 221.402 79.301 221.584 79.4459C221.765 79.5908 222.05 79.7115 222.436 79.8081L223.407 80.0467C223.993 80.1888 224.429 80.4061 224.716 80.6987C225.003 80.9885 225.146 81.3621 225.146 81.8194C225.146 82.1944 225.038 82.5297 224.822 82.8251C224.609 83.1206 224.311 83.3535 223.927 83.524C223.544 83.6944 223.098 83.7797 222.589 83.7797C221.922 83.7797 221.369 83.6348 220.932 83.345C220.494 83.0552 220.217 82.6319 220.101 82.0751L221.055 81.8365C221.146 82.1888 221.318 82.453 221.571 82.6291C221.827 82.8052 222.16 82.8933 222.572 82.8933C223.041 82.8933 223.413 82.7939 223.689 82.595C223.967 82.3933 224.106 82.1518 224.106 81.8706C224.106 81.6433 224.027 81.453 223.868 81.2996C223.709 81.1433 223.464 81.0268 223.135 80.9501L222.044 80.6944C221.444 80.5524 221.004 80.3322 220.723 80.0339C220.444 79.7328 220.305 79.3564 220.305 78.9047C220.305 78.5354 220.409 78.2087 220.616 77.9246C220.827 77.6405 221.112 77.4175 221.473 77.2555C221.836 77.0936 222.248 77.0126 222.709 77.0126C223.356 77.0126 223.865 77.1547 224.234 77.4388C224.606 77.7229 224.871 78.0979 225.027 78.5638ZM231.518 83.6433L229.524 77.0979H230.58L231.995 82.1092H232.063L233.461 77.0979H234.535L235.916 82.0922H235.984L237.399 77.0979H238.455L236.461 83.6433H235.472L234.041 78.6149H233.938L232.507 83.6433H231.518ZM242.307 83.7797C241.676 83.7797 241.132 83.6405 240.675 83.3621C240.22 83.0808 239.869 82.6888 239.622 82.1859C239.378 81.6802 239.255 81.0922 239.255 80.4217C239.255 79.7513 239.378 79.1604 239.622 78.649C239.869 78.1348 240.213 77.7342 240.653 77.4473C241.096 77.1575 241.613 77.0126 242.204 77.0126C242.545 77.0126 242.882 77.0694 243.214 77.1831C243.547 77.2967 243.849 77.4814 244.122 77.7371C244.395 77.9899 244.612 78.3251 244.774 78.7427C244.936 79.1604 245.017 79.6746 245.017 80.2854V80.7115H239.971V79.8422H243.994C243.994 79.4729 243.92 79.1433 243.773 78.8535C243.628 78.5638 243.42 78.3351 243.15 78.1675C242.883 77.9998 242.568 77.916 242.204 77.916C241.804 77.916 241.457 78.0155 241.165 78.2143C240.875 78.4104 240.652 78.666 240.496 78.9814C240.339 79.2967 240.261 79.6348 240.261 79.9956V80.5751C240.261 81.0694 240.346 81.4885 240.517 81.8322C240.69 82.1731 240.93 82.4331 241.237 82.6121C241.544 82.7882 241.9 82.8763 242.307 82.8763C242.571 82.8763 242.809 82.8393 243.023 82.7655C243.238 82.6888 243.425 82.5751 243.581 82.4246C243.737 82.2712 243.858 82.0808 243.943 81.8535L244.915 82.1263C244.812 82.4558 244.64 82.7456 244.399 82.9956C244.157 83.2427 243.859 83.4359 243.504 83.5751C243.149 83.7115 242.75 83.7797 242.307 83.7797ZM249.291 83.7797C248.66 83.7797 248.116 83.6405 247.659 83.3621C247.204 83.0808 246.853 82.6888 246.606 82.1859C246.362 81.6802 246.24 81.0922 246.24 80.4217C246.24 79.7513 246.362 79.1604 246.606 78.649C246.853 78.1348 247.197 77.7342 247.638 77.4473C248.081 77.1575 248.598 77.0126 249.189 77.0126C249.53 77.0126 249.866 77.0694 250.199 77.1831C250.531 77.2967 250.834 77.4814 251.106 77.7371C251.379 77.9899 251.596 78.3251 251.758 78.7427C251.92 79.1604 252.001 79.6746 252.001 80.2854V80.7115H246.956V79.8422H250.978C250.978 79.4729 250.905 79.1433 250.757 78.8535C250.612 78.5638 250.405 78.3351 250.135 78.1675C249.868 77.9998 249.552 77.916 249.189 77.916C248.788 77.916 248.442 78.0155 248.149 78.2143C247.859 78.4104 247.636 78.666 247.48 78.9814C247.324 79.2967 247.246 79.6348 247.246 79.9956V80.5751C247.246 81.0694 247.331 81.4885 247.501 81.8322C247.675 82.1731 247.915 82.4331 248.221 82.6121C248.528 82.7882 248.885 82.8763 249.291 82.8763C249.555 82.8763 249.794 82.8393 250.007 82.7655C250.223 82.6888 250.409 82.5751 250.565 82.4246C250.721 82.2712 250.842 82.0808 250.927 81.8535L251.899 82.1263C251.797 82.4558 251.625 82.7456 251.383 82.9956C251.142 83.2427 250.844 83.4359 250.488 83.5751C250.133 83.7115 249.734 83.7797 249.291 83.7797ZM254.469 81.2569L254.452 80.0126H254.656L257.52 77.0979H258.764L255.713 80.1831H255.628L254.469 81.2569ZM253.531 83.6433V74.916H254.537V83.6433H253.531ZM257.69 83.6433L255.133 80.4047L255.849 79.7058L258.969 83.6433H257.69Z" fill="#171717"/>
<path d="M60.8709 117.009V127.191H58.7182V117.009H60.8709ZM68.9559 121.732L67.017 121.851C66.9839 121.685 66.9126 121.536 66.8032 121.404C66.6939 121.268 66.5497 121.16 66.3707 121.081C66.1951 120.998 65.9846 120.956 65.7393 120.956C65.4112 120.956 65.1344 121.026 64.9091 121.165C64.6837 121.301 64.571 121.483 64.571 121.712C64.571 121.894 64.6439 122.048 64.7898 122.174C64.9356 122.3 65.1858 122.401 65.5405 122.478L66.9226 122.756C67.665 122.908 68.2185 123.154 68.5831 123.492C68.9477 123.83 69.1299 124.274 69.1299 124.824C69.1299 125.325 68.9825 125.764 68.6875 126.142C68.3958 126.52 67.9948 126.814 67.4844 127.027C66.9773 127.235 66.3923 127.34 65.7294 127.34C64.7185 127.34 63.9131 127.129 63.3132 126.708C62.7166 126.284 62.3669 125.707 62.2642 124.978L64.3473 124.869C64.4103 125.177 64.5627 125.413 64.8047 125.575C65.0466 125.734 65.3565 125.814 65.7344 125.814C66.1056 125.814 66.4039 125.742 66.6292 125.6C66.8579 125.454 66.9739 125.267 66.9773 125.038C66.9739 124.846 66.8927 124.688 66.7336 124.566C66.5746 124.44 66.3293 124.344 65.9978 124.277L64.6754 124.014C63.9297 123.865 63.3745 123.606 63.0099 123.238C62.6487 122.87 62.468 122.401 62.468 121.831C62.468 121.341 62.6006 120.918 62.8657 120.564C63.1342 120.209 63.5104 119.935 63.9943 119.743C64.4815 119.551 65.0516 119.455 65.7045 119.455C66.669 119.455 67.428 119.659 67.9815 120.066C68.5383 120.474 68.8631 121.029 68.9559 121.732ZM76.8173 121.732L74.8784 121.851C74.8452 121.685 74.7739 121.536 74.6646 121.404C74.5552 121.268 74.411 121.16 74.232 121.081C74.0564 120.998 73.8459 120.956 73.6007 120.956C73.2725 120.956 72.9958 121.026 72.7704 121.165C72.545 121.301 72.4323 121.483 72.4323 121.712C72.4323 121.894 72.5052 122.048 72.6511 122.174C72.7969 122.3 73.0471 122.401 73.4018 122.478L74.7839 122.756C75.5263 122.908 76.0798 123.154 76.4444 123.492C76.809 123.83 76.9913 124.274 76.9913 124.824C76.9913 125.325 76.8438 125.764 76.5488 126.142C76.2571 126.52 75.8561 126.814 75.3457 127.027C74.8386 127.235 74.2536 127.34 73.5907 127.34C72.5798 127.34 71.7744 127.129 71.1745 126.708C70.5779 126.284 70.2283 125.707 70.1255 124.978L72.2086 124.869C72.2716 125.177 72.424 125.413 72.666 125.575C72.9079 125.734 73.2178 125.814 73.5957 125.814C73.9669 125.814 74.2652 125.742 74.4906 125.6C74.7193 125.454 74.8353 125.267 74.8386 125.038C74.8353 124.846 74.7541 124.688 74.595 124.566C74.4359 124.44 74.1906 124.344 73.8592 124.277L72.5367 124.014C71.791 123.865 71.2358 123.606 70.8712 123.238C70.51 122.87 70.3293 122.401 70.3293 121.831C70.3293 121.341 70.4619 120.918 70.7271 120.564C70.9955 120.209 71.3717 119.935 71.8556 119.743C72.3428 119.551 72.9129 119.455 73.5659 119.455C74.5303 119.455 75.2893 119.659 75.8428 120.066C76.3997 120.474 76.7245 121.029 76.8173 121.732ZM83.2219 123.939V119.554H85.3398V127.191H83.3064V125.804H83.2269C83.0545 126.251 82.7679 126.611 82.3668 126.882C81.9691 127.154 81.4835 127.29 80.9101 127.29C80.3997 127.29 79.9506 127.174 79.5628 126.942C79.175 126.71 78.8718 126.38 78.653 125.953C78.4376 125.525 78.3282 125.013 78.3249 124.417V119.554H80.4428V124.039C80.4461 124.489 80.5671 124.846 80.8057 125.108C81.0444 125.369 81.3642 125.5 81.7652 125.5C82.0205 125.5 82.2591 125.442 82.4812 125.326C82.7032 125.207 82.8822 125.031 83.0181 124.799C83.1573 124.567 83.2252 124.281 83.2219 123.939ZM90.514 127.34C89.7285 127.34 89.0524 127.181 88.4856 126.863C87.9221 126.541 87.488 126.087 87.183 125.5C86.8781 124.91 86.7257 124.213 86.7257 123.407C86.7257 122.622 86.8781 121.932 87.183 121.339C87.488 120.746 87.9172 120.283 88.4707 119.952C89.0275 119.621 89.6804 119.455 90.4295 119.455C90.9333 119.455 91.4023 119.536 91.8364 119.698C92.2739 119.858 92.6551 120.098 92.9799 120.419C93.308 120.741 93.5632 121.145 93.7455 121.632C93.9278 122.116 94.019 122.683 94.019 123.333V123.914H87.5708V122.602H92.0254C92.0254 122.297 91.9591 122.027 91.8265 121.792C91.6939 121.556 91.51 121.372 91.2747 121.24C91.0427 121.104 90.7725 121.036 90.4643 121.036C90.1428 121.036 89.8578 121.11 89.6092 121.26C89.3639 121.405 89.1717 121.603 89.0325 121.851C88.8933 122.096 88.822 122.37 88.8187 122.671V123.919C88.8187 124.297 88.8883 124.624 89.0275 124.899C89.17 125.174 89.3705 125.386 89.6291 125.535C89.8876 125.684 90.1942 125.759 90.5488 125.759C90.7841 125.759 90.9996 125.726 91.1951 125.659C91.3907 125.593 91.558 125.494 91.6972 125.361C91.8364 125.229 91.9425 125.066 92.0154 124.874L93.9742 125.003C93.8748 125.474 93.671 125.885 93.3627 126.236C93.0578 126.584 92.6634 126.856 92.1795 127.051C91.6989 127.244 91.1437 127.34 90.514 127.34ZM101.755 121.732L99.8159 121.851C99.7827 121.685 99.7114 121.536 99.6021 121.404C99.4927 121.268 99.3485 121.16 99.1695 121.081C98.9939 120.998 98.7834 120.956 98.5382 120.956C98.21 120.956 97.9333 121.026 97.7079 121.165C97.4825 121.301 97.3698 121.483 97.3698 121.712C97.3698 121.894 97.4427 122.048 97.5886 122.174C97.7344 122.3 97.9846 122.401 98.3393 122.478L99.7214 122.756C100.464 122.908 101.017 123.154 101.382 123.492C101.746 123.83 101.929 124.274 101.929 124.824C101.929 125.325 101.781 125.764 101.486 126.142C101.195 126.52 100.794 126.814 100.283 127.027C99.7761 127.235 99.1911 127.34 98.5282 127.34C97.5173 127.34 96.7119 127.129 96.112 126.708C95.5154 126.284 95.1658 125.707 95.063 124.978L97.1461 124.869C97.2091 125.177 97.3615 125.413 97.6035 125.575C97.8454 125.734 98.1553 125.814 98.5332 125.814C98.9044 125.814 99.2027 125.742 99.4281 125.6C99.6568 125.454 99.7728 125.267 99.7761 125.038C99.7728 124.846 99.6916 124.688 99.5325 124.566C99.3734 124.44 99.1281 124.344 98.7967 124.277L97.4742 124.014C96.7285 123.865 96.1733 123.606 95.8087 123.238C95.4475 122.87 95.2668 122.401 95.2668 121.831C95.2668 121.341 95.3994 120.918 95.6646 120.564C95.933 120.209 96.3092 119.935 96.7931 119.743C97.2803 119.551 97.8504 119.455 98.5034 119.455C99.4678 119.455 100.227 119.659 100.78 120.066C101.337 120.474 101.662 121.029 101.755 121.732ZM106.542 127.191V117.009H113.284V118.784H108.695V121.21H112.836V122.985H108.695V127.191H106.542ZM114.692 127.191V119.554H116.81V127.191H114.692ZM115.756 118.57C115.441 118.57 115.171 118.466 114.946 118.257C114.724 118.045 114.613 117.791 114.613 117.496C114.613 117.204 114.724 116.954 114.946 116.745C115.171 116.533 115.441 116.427 115.756 116.427C116.071 116.427 116.339 116.533 116.561 116.745C116.787 116.954 116.899 117.204 116.899 117.496C116.899 117.791 116.787 118.045 116.561 118.257C116.339 118.466 116.071 118.57 115.756 118.57ZM120.276 119.554L121.678 122.224L123.115 119.554H125.288L123.075 123.372L125.347 127.191H123.185L121.678 124.551L120.197 127.191H118.009L120.276 123.372L118.089 119.554H120.276ZM129.752 127.34C128.967 127.34 128.291 127.181 127.724 126.863C127.16 126.541 126.726 126.087 126.421 125.5C126.116 124.91 125.964 124.213 125.964 123.407C125.964 122.622 126.116 121.932 126.421 121.339C126.726 120.746 127.155 120.283 127.709 119.952C128.266 119.621 128.919 119.455 129.668 119.455C130.172 119.455 130.641 119.536 131.075 119.698C131.512 119.858 131.893 120.098 132.218 120.419C132.546 120.741 132.802 121.145 132.984 121.632C133.166 122.116 133.257 122.683 133.257 123.333V123.914H126.809V122.602H131.264C131.264 122.297 131.197 122.027 131.065 121.792C130.932 121.556 130.748 121.372 130.513 121.24C130.281 121.104 130.011 121.036 129.703 121.036C129.381 121.036 129.096 121.11 128.847 121.26C128.602 121.405 128.41 121.603 128.271 121.851C128.132 122.096 128.06 122.37 128.057 122.671V123.919C128.057 124.297 128.127 124.624 128.266 124.899C128.408 125.174 128.609 125.386 128.867 125.535C129.126 125.684 129.432 125.759 129.787 125.759C130.022 125.759 130.238 125.726 130.433 125.659C130.629 125.593 130.796 125.494 130.936 125.361C131.075 125.229 131.181 125.066 131.254 124.874L133.213 125.003C133.113 125.474 132.909 125.885 132.601 126.236C132.296 126.584 131.902 126.856 131.418 127.051C130.937 127.244 130.382 127.34 129.752 127.34ZM137.453 127.315C136.873 127.315 136.348 127.166 135.877 126.868C135.41 126.566 135.039 126.123 134.764 125.54C134.492 124.953 134.356 124.234 134.356 123.382C134.356 122.507 134.497 121.78 134.779 121.2C135.06 120.617 135.435 120.181 135.902 119.892C136.373 119.601 136.888 119.455 137.448 119.455C137.876 119.455 138.232 119.528 138.517 119.674C138.806 119.816 139.038 119.995 139.213 120.211C139.392 120.423 139.528 120.631 139.621 120.837H139.686V117.009H141.798V127.191H139.71V125.968H139.621C139.521 126.18 139.381 126.39 139.198 126.599C139.019 126.805 138.786 126.975 138.497 127.111C138.212 127.247 137.864 127.315 137.453 127.315ZM138.124 125.63C138.466 125.63 138.754 125.537 138.99 125.351C139.228 125.162 139.41 124.899 139.536 124.561C139.666 124.223 139.73 123.827 139.73 123.372C139.73 122.918 139.667 122.524 139.541 122.189C139.415 121.854 139.233 121.596 138.994 121.414C138.756 121.231 138.466 121.14 138.124 121.14C137.776 121.14 137.483 121.235 137.244 121.424C137.006 121.613 136.825 121.874 136.703 122.209C136.58 122.544 136.519 122.932 136.519 123.372C136.519 123.817 136.58 124.209 136.703 124.551C136.829 124.889 137.009 125.154 137.244 125.346C137.483 125.535 137.776 125.63 138.124 125.63Z" fill="#171717"/>
<path d="M68.2196 168.892C66.6136 168.892 65.1817 168.597 63.9242 168.006C62.6742 167.415 61.6817 166.6 60.9469 165.562C60.212 164.525 59.8295 163.335 59.7992 161.994H64.5719C64.6249 162.896 65.0037 163.627 65.7083 164.187C66.4128 164.748 67.2499 165.028 68.2196 165.028C68.9923 165.028 69.6742 164.858 70.2651 164.517C70.8636 164.169 71.3295 163.687 71.6628 163.074C72.0037 162.453 72.1742 161.741 72.1742 160.937C72.1742 160.119 71.9999 159.4 71.6514 158.778C71.3105 158.157 70.837 157.672 70.231 157.324C69.6249 156.975 68.9317 156.797 68.1514 156.79C67.4696 156.79 66.8067 156.93 66.1628 157.21C65.5264 157.491 65.0302 157.873 64.6742 158.358L60.2992 157.574L61.4014 145.301H75.6287V149.324H65.4583L64.856 155.153H64.9923C65.4014 154.578 66.0189 154.1 66.8446 153.722C67.6704 153.343 68.5946 153.153 69.6173 153.153C71.0189 153.153 72.2689 153.483 73.3673 154.142C74.4658 154.801 75.3333 155.706 75.9696 156.858C76.606 158.002 76.9204 159.32 76.9128 160.812C76.9204 162.381 76.5567 163.775 75.8219 164.994C75.0946 166.206 74.0757 167.161 72.7651 167.858C71.462 168.547 69.9469 168.892 68.2196 168.892ZM89.4696 169.085C87.5151 169.078 85.8333 168.597 84.4242 167.642C83.0226 166.687 81.9431 165.305 81.1855 163.494C80.4355 161.684 80.0643 159.506 80.0719 156.96C80.0719 154.422 80.4469 152.259 81.1969 150.472C81.9545 148.684 83.034 147.324 84.4355 146.392C85.8446 145.453 87.5226 144.983 89.4696 144.983C91.4166 144.983 93.0908 145.453 94.4923 146.392C95.9014 147.331 96.9848 148.695 97.7423 150.483C98.4999 152.263 98.8749 154.422 98.8673 156.96C98.8673 159.513 98.4886 161.695 97.731 163.506C96.981 165.316 95.9052 166.699 94.5037 167.653C93.1022 168.608 91.4242 169.085 89.4696 169.085ZM89.4696 165.006C90.8029 165.006 91.8673 164.335 92.6628 162.994C93.4583 161.653 93.8522 159.642 93.8446 156.96C93.8446 155.195 93.6628 153.725 93.2992 152.551C92.9431 151.377 92.4355 150.494 91.7764 149.903C91.1249 149.312 90.356 149.017 89.4696 149.017C88.1439 149.017 87.0833 149.68 86.2878 151.006C85.4923 152.331 85.0908 154.316 85.0833 156.96C85.0833 158.748 85.2613 160.241 85.6173 161.437C85.981 162.627 86.4923 163.521 87.1514 164.119C87.8105 164.71 88.5833 165.006 89.4696 165.006ZM111.501 169.085C109.546 169.078 107.865 168.597 106.455 167.642C105.054 166.687 103.974 165.305 103.217 163.494C102.467 161.684 102.096 159.506 102.103 156.96C102.103 154.422 102.478 152.259 103.228 150.472C103.986 148.684 105.065 147.324 106.467 146.392C107.876 145.453 109.554 144.983 111.501 144.983C113.448 144.983 115.122 145.453 116.524 146.392C117.933 147.331 119.016 148.695 119.774 150.483C120.531 152.263 120.906 154.422 120.899 156.96C120.899 159.513 120.52 161.695 119.762 163.506C119.012 165.316 117.936 166.699 116.535 167.653C115.133 168.608 113.455 169.085 111.501 169.085ZM111.501 165.006C112.834 165.006 113.899 164.335 114.694 162.994C115.49 161.653 115.883 159.642 115.876 156.96C115.876 155.195 115.694 153.725 115.33 152.551C114.974 151.377 114.467 150.494 113.808 149.903C113.156 149.312 112.387 149.017 111.501 149.017C110.175 149.017 109.115 149.68 108.319 151.006C107.524 152.331 107.122 154.316 107.115 156.96C107.115 158.748 107.293 160.241 107.649 161.437C108.012 162.627 108.524 163.521 109.183 164.119C109.842 164.71 110.615 165.006 111.501 165.006ZM124.543 168.574V145.301H129.464V155.562H129.771L138.146 145.301H144.043L135.407 155.722L144.146 168.574H138.259L131.884 159.006L129.464 161.96V168.574H124.543ZM152.018 165.028V148.937H156.086V165.028H152.018ZM146.007 159.017V154.949H162.097V159.017H146.007Z" fill="#081735"/>
<defs>
<filter id="filter0_d_1_7241" x="0" y="0" width="313" height="212" filterUnits="userSpaceOnUse" color-interpolation-filters="sRGB">
<feFlood flood-opacity="0" result="BackgroundImageFix"/>
<feColorMatrix in="SourceAlpha" type="matrix" values="0 0 0 0 0 0 0 0 0 0 0 0 0 0 0 0 0 0 127 0" result="hardAlpha"/>
<feOffset/>
<feGaussianBlur stdDeviation="12"/>
<feComposite in2="hardAlpha" operator="out"/>
<feColorMatrix type="matrix" values="0 0 0 0 0.0321181 0 0 0 0 0.0908565 0 0 0 0 0.208333 0 0 0 0.16 0"/>
<feBlend mode="normal" in2="BackgroundImageFix" result="effect1_dropShadow_1_7241"/>
<feBlend mode="normal" in="SourceGraphic" in2="effect1_dropShadow_1_7241" result="shape"/>
</filter>
</defs>
</svg>
